# xmcd
#
# Track frame offsets: 
#        150
#        23705
#        52680
#        76515
#        102502
#        127075
#        150232
#        172680
#
# Disc length: 2697 seconds
#
# Revision: 2
# Processed by: cddbd v1.5.2PL0 Copyright (c) Steve Scherf et al.
# Submitted via: ExactAudioCopyFreeDBPlugin 1.0
#
DISCID=480a8708
DTITLE=Crown Heights Affair - Think Positive [Unidisc]
DYEAR=1982
DGENRE=Funk+Soul
TTITLE0=Somebody Tell Me What To Do
TTITLE1=Love Rip Off
TTITLE2=Heart Upside Down
TTITLE3=Think Positive
TTITLE4=I Got Somethin' For Ya
TTITLE5=Wine and Dine You
TTITLE6=Your Love Makes Me Hot
TTITLE7=Let Me Ride On The Wave Of Your Love
EXTD=
EXTT0=
EXTT1=
EXTT2=
EXTT3=
EXTT4=
EXTT5=
EXTT6=
EXTT7=
PLAYORDER=
